<?xml version="1.0" encoding="UTF-8" standalone="no"?>
<!DOCTYPE svg PUBLIC "-//W3C//DTD SVG 1.1//EN" "http://www.w3.org/Graphics/SVG/1.1/DTD/svg11.dtd">
<svg width="100%" height="100%" viewBox="0 0 1000 999" version="1.1" xmlns="http://www.w3.org/2000/svg" xmlns:xlink="http://www.w3.org/1999/xlink" xml:space="preserve" xmlns:serif="http://www.serif.com/" style="fill-rule:evenodd;clip-rule:evenodd;stroke-linejoin:round;stroke-miterlimit:2;">
    <g transform="matrix(4.68864,0,0,4.68864,-507.927,-3.0715)">
        <path d="M181.206,68.511L247.234,2.714C249.996,-0.038 254.507,-0.03 257.259,2.731L319.554,65.245C322.306,68.006 322.298,72.517 319.537,75.269L253.509,141.067L181.206,68.511ZM240.373,56.836C247.305,49.927 258.526,49.947 265.434,56.879C272.343,63.812 272.324,75.033 265.391,81.942C258.458,88.85 247.237,88.83 240.329,81.897C233.421,74.965 233.44,63.744 240.373,56.836Z" style="fill:rgb(4,3,3);"/>
        <path d="M190.493,132.311C197.426,125.402 208.647,125.422 215.555,132.354C222.464,139.287 222.444,150.508 215.511,157.417C208.579,164.325 197.358,164.305 190.449,157.372C183.541,150.44 183.561,139.219 190.493,132.311ZM138.614,132.471C145.547,125.562 156.768,125.582 163.676,132.514C170.585,139.447 170.565,150.668 163.632,157.577C156.7,164.485 145.479,164.465 138.57,157.532C131.662,150.6 131.682,139.379 138.614,132.471ZM110.408,139.063L176.436,73.265L248.739,145.821L182.71,211.619C179.949,214.37 175.438,214.362 172.686,211.601L110.391,149.088C107.638,146.326 107.646,141.815 110.408,139.063Z" style="fill:rgb(4,3,3);"/>
    </g>
</svg>
