<?xml version="1.0" standalone="no"?>
<!DOCTYPE svg PUBLIC "-//W3C//DTD SVG 20010904//EN"
 "http://www.w3.org/TR/2001/REC-SVG-20010904/DTD/svg10.dtd">
<svg version="1.0" xmlns="http://www.w3.org/2000/svg"
 width="700.000000pt" height="700.000000pt" viewBox="0 0 700.000000 700.000000"
 preserveAspectRatio="xMidYMid meet">
<metadata>
Created by potrace 1.11, written by Peter Selinger 2001-2013
</metadata>
<g transform="translate(0.000000,700.000000) scale(0.100000,-0.100000)"
fill="#000000" stroke="none">
<path d="M3850 6459 c-884 -78 -1633 -541 -2122 -1310 -282 -446 -479 -994
-572 -1599 -74 -476 -91 -1105 -41 -1485 88 -669 396 -1185 840 -1407 177 -89
320 -122 530 -122 171 0 253 17 385 82 148 72 294 248 370 445 58 149 81 258
220 1035 77 431 142 788 145 793 4 5 26 9 50 9 134 0 506 66 700 125 721 217
1244 673 1454 1268 74 210 102 383 103 622 0 489 -178 881 -526 1161 -240 193
-526 312 -878 365 -156 23 -496 33 -658 18z m355 -699 c260 -45 452 -142 577
-294 156 -188 217 -394 205 -686 -10 -234 -50 -405 -136 -577 -178 -355 -527
-574 -1043 -656 -85 -14 -88 -14 -88 5 0 11 46 286 102 611 93 540 102 603
103 723 0 126 -1 132 -30 189 -54 106 -146 146 -340 146 -91 1 -124 -4 -189
-25 -141 -45 -230 -128 -275 -256 -19 -53 -110 -540 -206 -1105 -25 -148 -49
-277 -53 -286 -6 -13 -17 -14 -97 -3 -272 38 -352 28 -434 -54 -59 -59 -81
-119 -81 -222 0 -102 22 -172 71 -225 53 -57 112 -81 265 -105 71 -11 138 -22
150 -25 23 -5 38 94 -132 -874 -87 -498 -126 -627 -210 -700 -134 -118 -351
97 -473 469 -85 261 -114 473 -114 835 0 394 28 696 98 1040 251 1238 926
2007 1839 2095 125 12 359 2 491 -20z"/>
</g>
</svg>
